<svg xmlns="http://www.w3.org/2000/svg" version="1.1" xmlns:xlink="http://www.w3.org/1999/xlink" xmlns:svgjs="http://svgjs.dev/svgjs" width="1000" height="1000"><g clip-path="url(#SvgjsClipPath1091)"><rect width="1000" height="1000" fill="#003566"></rect><g transform="matrix(2,0,0,2,0,0)"><svg xmlns="http://www.w3.org/2000/svg" version="1.1" xmlns:xlink="http://www.w3.org/1999/xlink" xmlns:svgjs="http://svgjs.dev/svgjs" width="500" height="500"><svg id="Calque_1" xmlns="http://www.w3.org/2000/svg" viewBox="0 0 500 500">
  <defs>
    <style>
      .cls-1 {
        fill: #001d3d;
      }

      .cls-2 {
        fill: #fff;
      }
    </style>
  <clipPath id="SvgjsClipPath1091"><rect width="1000" height="1000" x="0" y="0" rx="150" ry="150"></rect></clipPath></defs>
  <rect class="cls-1" width="500" height="500"></rect>
  <g>
    <g>
      <path class="cls-2" d="M425.76,239.17h-6.38c-5.86,0-10.61,4.75-10.61,10.61h0c0,3.57-.15,7.1-.36,10.61-.44,7.21-1.34,14.29-2.66,21.22-1.38,7.25-3.21,14.33-5.48,21.22-17.94,54.57-62.76,96.94-118.83,111.37-6.91,1.78-14,3.08-21.22,3.98-5.57.69-11.21,1.15-16.92,1.31-2.36.06-4.3-1.88-4.3-4.24v-16.92s0-21.22,0-21.22V63.46c0-2.34-1.9-4.24-4.24-4.24h0c-9.38,0-16.98,7.61-16.98,16.99v343.32c0,11.67,9.55,21.23,21.22,21.23h0c7.17,0,14.25-.41,21.22-1.18,7.2-.8,14.28-1.99,21.22-3.56,67.83-15.39,121.94-66.88,141.08-133.2,2-6.92,3.61-14,4.82-21.22,1.17-6.95,1.96-14.03,2.36-21.22.19-3.51.3-7.05.3-10.61v-6.37c0-2.34-1.9-4.24-4.24-4.24Z"></path>
      <path class="cls-2" d="M387.14,239.17c-.51-7.23-1.53-14.31-3.04-21.22-11.55-52.89-51.26-95.23-102.65-110.53l-10.32-3.06c-5.44-1.62-10.9,2.46-10.9,8.14v279.31c0,2.66,2.42,4.65,5.04,4.18,5.5-.98,10.9-2.27,16.18-3.84,44.31-13.19,79.93-46.48,96.31-89.31,2.62-6.85,4.75-13.93,6.34-21.22,1.51-6.91,2.53-13.99,3.04-21.22.25-3.51.42-7.04.42-10.61s-.17-7.1-.42-10.61ZM361.16,260.39c2.57,0,4.52,2.26,4.22,4.81-.66,5.59-1.68,11.07-3.05,16.41-1.89,7.36-4.46,14.44-7.57,21.22-13.42,29.23-37.57,52.5-67.42,64.76-2.8,1.15-5.88-.92-5.88-3.95v-227.73c0-3.02,3.07-5.1,5.86-3.95,36.79,15.1,64.95,46.9,75.01,85.99,1.37,5.34,2.39,10.82,3.05,16.41.3,2.55-1.65,4.81-4.22,4.81h-55.3c-2.35,0-4.25,1.9-4.25,4.25v12.72c0,2.35,1.9,4.25,4.25,4.25h55.3Z"></path>
    </g>
    <path class="cls-2" d="M94.68,216.14c1.59-7.29,3.72-14.38,6.34-21.22,14.58-38.11,44.4-66.99,82.01-82.18,8.71-3.52,14.31-12.1,14.31-21.5h0c0-2.84-2.74-4.86-5.46-4.07-53.51,15.58-96.01,54.97-113.36,107.75-2.27,6.89-4.1,13.97-5.48,21.22-1.32,6.94-2.22,14.02-2.66,21.22-.22,3.51-.36,7.04-.36,10.61,0,.3.02.6.02.91,0,.3-.02.6-.02.91,0,3.57.15,7.1.36,10.61.44,7.21,1.34,14.29,2.66,21.22,1.38,7.25,3.21,14.33,5.48,21.22,17.35,52.78,59.85,94.15,113.35,109.86,2.73.8,5.47-1.22,5.47-4.06h0c0-9.48-5.73-18-14.49-21.64-37.52-15.59-67.26-46.11-81.82-84.16-2.62-6.85-4.75-13.93-6.34-21.22-1.51-6.91-2.53-13.99-3.04-21.22-.25-3.51-.42-7.04-.42-10.61,0-.3.02-.6.02-.91,0-.3-.02-.6-.02-.91,0-3.57.17-7.1.42-10.61.51-7.23,1.53-14.31,3.04-21.22Z"></path>
  </g>
</svg></svg></g></g></svg>