<?xml version="1.0" encoding="UTF-8"?>
<svg id="Calque_2" xmlns="http://www.w3.org/2000/svg" xmlns:xlink="http://www.w3.org/1999/xlink" viewBox="0 0 60 60">
  <defs>
    <style>
      .cls-1 {
        fill-rule: evenodd;
      }

      .cls-1, .cls-2 {
        fill: #fff;
      }

      .cls-3 {
        fill: url(#Dégradé_sans_nom_4);
      }

      .cls-4 {
        fill: url(#Dégradé_sans_nom_2);
      }

      .cls-5 {
        fill: url(#Dégradé_sans_nom_3);
      }
    </style>
    <radialGradient id="Dégradé_sans_nom_4" data-name="Dégradé sans nom 4" cx="-282.53" cy="231.32" fx="-282.53" fy="231.32" r=".09" gradientTransform="translate(223879.55 -64431.33) rotate(-55.38) scale(637.99 -637.99)" gradientUnits="userSpaceOnUse">
      <stop offset="0" stop-color="#b13589"/>
      <stop offset=".79" stop-color="#c62f94"/>
      <stop offset="1" stop-color="#8a3ac8"/>
    </radialGradient>
    <radialGradient id="Dégradé_sans_nom_2" data-name="Dégradé sans nom 2" cx="-282.11" cy="231.36" fx="-282.11" fy="231.36" r=".09" gradientTransform="translate(185591.62 -89568.79) rotate(-65.14) scale(564.85 -564.85)" gradientUnits="userSpaceOnUse">
      <stop offset="0" stop-color="#e0e8b7"/>
      <stop offset=".44" stop-color="#fb8a2e"/>
      <stop offset=".71" stop-color="#e2425c"/>
      <stop offset="1" stop-color="#e2425c" stop-opacity="0"/>
    </radialGradient>
    <radialGradient id="Dégradé_sans_nom_3" data-name="Dégradé sans nom 3" cx="-282.74" cy="230.36" fx="-282.74" fy="230.36" r=".09" gradientTransform="translate(278910.86 8549.2) rotate(-8.13) scale(972.27 -207.96)" gradientUnits="userSpaceOnUse">
      <stop offset=".16" stop-color="#406adc"/>
      <stop offset=".47" stop-color="#6a45be"/>
      <stop offset="1" stop-color="#6a45be" stop-opacity="0"/>
    </radialGradient>
  </defs>
  <rect class="cls-3" width="60" height="60" rx="12.86" ry="12.86"/>
  <rect class="cls-4" width="60" height="60" rx="12.86" ry="12.86"/>
  <rect class="cls-5" width="60" height="60" rx="12.86" ry="12.86"/>
  <path class="cls-2" d="M45,18.21c0,1.78-1.44,3.21-3.21,3.21s-3.21-1.44-3.21-3.21,1.44-3.21,3.21-3.21,3.21,1.44,3.21,3.21Z"/>
  <path class="cls-1" d="M30,40.71c5.92,0,10.71-4.8,10.71-10.71s-4.8-10.71-10.71-10.71-10.71,4.8-10.71,10.71,4.8,10.71,10.71,10.71ZM30,36.43c3.55,0,6.43-2.88,6.43-6.43s-2.88-6.43-6.43-6.43-6.43,2.88-6.43,6.43,2.88,6.43,6.43,6.43Z"/>
  <path class="cls-1" d="M8.57,29.14c0-7.2,0-10.8,1.4-13.55,1.23-2.42,3.2-4.39,5.62-5.62,2.75-1.4,6.35-1.4,13.55-1.4h1.71c7.2,0,10.8,0,13.55,1.4,2.42,1.23,4.39,3.2,5.62,5.62,1.4,2.75,1.4,6.35,1.4,13.55v1.71c0,7.2,0,10.8-1.4,13.55-1.23,2.42-3.2,4.39-5.62,5.62-2.75,1.4-6.35,1.4-13.55,1.4h-1.71c-7.2,0-10.8,0-13.55-1.4-2.42-1.23-4.39-3.2-5.62-5.62-1.4-2.75-1.4-6.35-1.4-13.55v-1.71ZM29.14,12.86h1.71c3.67,0,6.17,0,8.1.16,1.88.15,2.84.43,3.51.77,1.61.82,2.92,2.13,3.75,3.75.34.67.62,1.63.77,3.51.16,1.93.16,4.42.16,8.1v1.71c0,3.67,0,6.17-.16,8.1-.15,1.88-.43,2.84-.77,3.51-.82,1.61-2.13,2.92-3.75,3.75-.67.34-1.63.62-3.51.77-1.93.16-4.42.16-8.1.16h-1.71c-3.67,0-6.17,0-8.1-.16-1.88-.15-2.84-.43-3.51-.77-1.61-.82-2.92-2.13-3.75-3.75-.34-.67-.62-1.63-.77-3.51-.16-1.93-.16-4.42-.16-8.1v-1.71c0-3.67,0-6.17.16-8.1.15-1.88.43-2.84.77-3.51.82-1.61,2.13-2.92,3.75-3.75.67-.34,1.63-.62,3.51-.77,1.93-.16,4.42-.16,8.1-.16Z"/>
</svg>