<?xml version="1.0" encoding="UTF-8"?>
<svg id="Calque_3" xmlns="http://www.w3.org/2000/svg" viewBox="0 0 60 60">
  <defs>
    <style>
      .cls-1 {
        fill: #1877f2;
      }

      .cls-2 {
        fill: #fff;
      }
    </style>
  </defs>
  <path class="cls-1" d="M60,29.99C60,13.43,46.57,0,30.01,0,13.45-.02.02,13.4,0,29.96c-.01,14.77,10.73,27.35,25.33,29.65v-20.96h-7.61v-8.67h7.61v-6.61c0-7.51,4.48-11.67,11.33-11.67,3.28,0,6.71.59,6.71.59v7.38h-3.78c-3.73,0-4.88,2.31-4.88,4.68v5.62h8.31l-1.33,8.67h-6.99v20.96c14.57-2.31,25.3-14.87,25.3-29.62Z"/>
  <path class="cls-2" d="M41.69,38.65l1.33-8.67h-8.31v-5.62c0-2.37,1.16-4.68,4.88-4.68h3.78v-7.39s-3.43-.59-6.71-.59c-6.85,0-11.33,4.16-11.33,11.67v6.61h-7.61v8.67h7.61v20.96c3.11.49,6.27.49,9.37,0v-20.96h6.98Z"/>
</svg>