<?xml version="1.0" encoding="UTF-8"?>
<svg id="Calque_1" xmlns="http://www.w3.org/2000/svg" viewBox="0 0 60 60">
  <defs>
    <style>
      .cls-1 {
        fill: #00af87;
      }
    </style>
  </defs>
  <g id="Capa_1">
    <g>
      <path class="cls-1" d="M41.26,28.27c-2.02,0-3.67,1.63-3.67,3.63,0,2,1.64,3.66,3.64,3.66s3.65-1.64,3.65-3.65-1.63-3.65-3.62-3.65h0ZM41.26,33.77c-1.03,0-1.87-.82-1.87-1.83s.81-1.87,1.85-1.87,1.86.83,1.85,1.85c-.02,1.01-.83,1.85-1.84,1.85h0Z"/>
      <path class="cls-1" d="M18.73,23.02c-4.85-.05-9.07,4-8.99,9.16.08,4.81,4.04,8.88,9.09,8.84,4.94-.04,8.91-4.08,8.92-8.96,0-5.02-4.01-9.04-9.02-9.04h0ZM18.87,37.51c-3.25.15-5.87-2.44-5.86-5.59,0-3.19,2.63-5.62,5.6-5.57,3.08,0,5.59,2.48,5.58,5.57,0,3.12-2.47,5.46-5.31,5.59h0Z"/>
      <path class="cls-1" d="M30,0C13.43,0,0,13.43,0,30s13.43,30,30,30,30-13.43,30-30S46.57,0,30,0ZM47.24,41.65c-1.83,1.16-3.86,1.72-6.02,1.73-.91,0-1.82-.11-2.7-.34-2.16-.56-4.02-1.64-5.54-3.27-.2-.22-.39-.43-.61-.68-.81,1.2-1.6,2.39-2.42,3.6-.81-1.22-1.6-2.38-2.38-3.56-.05.03-.07.03-.08.04-.02.02-.04.04-.05.05-1.85,2.18-4.18,3.52-7,3.97-1.57.25-3.14.16-4.66-.26-2.17-.59-4.01-1.74-5.51-3.43-1.46-1.65-2.36-3.57-2.7-5.75-.39-2.03.08-4,.2-4.47.34-1.38.94-2.65,1.76-3.82.06-.08.07-.23.05-.33-.34-1.23-.91-2.34-1.58-3.41-.17-.27-.38-.52-.56-.78v-.09s.08.02.11.02h6.81c.1,0,.21-.04.29-.1,1.6-1.03,3.29-1.84,5.08-2.47,1.29-.46,2.6-.81,3.95-1.07,1.3-.25,2.6-.43,3.92-.52,3.22-.25,5.78.09,7.49.33,1.26.18,2.5.5,3.71.87,2.13.65,4.14,1.57,6.03,2.74.13.08.31.13.47.13,2.22,0,4.43,0,6.65,0,.18,0,.36.02.53.03v.07c-.11.16-.21.32-.32.47-.75,1.15-1.39,2.36-1.78,3.7-.04.14-.05.26.04.4,1.97,2.83,2.6,5.95,1.78,9.31-.73,2.94-2.42,5.24-4.98,6.86h0Z"/>
      <path class="cls-1" d="M18.56,28.27c-1.97,0-3.62,1.67-3.61,3.65,0,2,1.66,3.65,3.66,3.65,2,0,3.65-1.66,3.64-3.66,0-2.02-1.64-3.64-3.68-3.64h0ZM18.61,33.79c-1.06,0-1.88-.82-1.88-1.88s.82-1.85,1.87-1.85,1.88.82,1.88,1.86-.84,1.87-1.88,1.88h0Z"/>
      <path class="cls-1" d="M41.06,23.06c-4.92.1-8.77,4.07-8.82,8.98,0,4.99,4.04,9.06,9.01,9.04,4.99-.02,9.02-3.98,9.01-9.02,0-5.2-4.22-9.1-9.2-9h0ZM41.47,37.51c-3.23.13-5.83-2.45-5.82-5.58,0-3.17,2.61-5.63,5.6-5.57,3.08,0,5.59,2.48,5.59,5.57s-2.46,5.48-5.36,5.6h0Z"/>
      <path class="cls-1" d="M33.59,23.72c2-1.83,4.37-2.79,7.06-2.99-3.2-1.42-6.57-2.03-10.04-2.09-3.95-.07-7.78.5-11.45,2.04,2.74.17,5.15,1.12,7.18,2.97,2.03,1.85,3.22,4.15,3.65,6.85.44-2.68,1.6-4.96,3.59-6.78h0Z"/>
    </g>
  </g>
</svg>