<svg width="25" height="25" viewBox="0 0 25 25" fill="none" xmlns="http://www.w3.org/2000/svg">
<path d="M18.3516 11.6108C17.204 11.6108 16.2743 12.5413 16.2743 13.6882C16.2743 14.8351 17.2047 15.7655 18.3516 15.7655C19.4993 15.7655 20.429 14.8351 20.429 13.6882C20.429 13.3054 20.3258 12.9476 20.1454 12.6397L20.1508 12.6499C19.7852 12.0249 19.1165 11.6108 18.3516 11.6108ZM6.64458 11.6108C5.49692 11.6108 4.56724 12.5413 4.56724 13.6882C4.56724 14.8351 5.49771 15.7655 6.64458 15.7655C7.79224 15.7655 8.72192 14.8351 8.72192 13.6882C8.72192 13.3054 8.6188 12.9476 8.43833 12.6397L8.4438 12.6499C8.07817 12.0249 7.40942 11.6108 6.64458 11.6108ZM18.3516 9.72646C18.3524 9.72646 18.3524 9.72646 18.3532 9.72646C20.5407 9.72646 22.3141 11.4999 22.3141 13.6874C22.3141 15.8749 20.5407 17.6483 18.3532 17.6483C16.1657 17.6483 14.3922 15.8749 14.3922 13.6874C14.3922 12.9585 14.5891 12.2757 14.9321 11.689L14.9219 11.7077C15.6188 10.5147 16.893 9.72725 18.3516 9.72646ZM6.64458 9.72412C8.83286 9.72412 10.6071 11.4983 10.6071 13.6866C10.6071 15.8749 8.83286 17.6491 6.64458 17.6491C4.4563 17.6491 2.68208 15.8749 2.68208 13.6866C2.68208 12.9569 2.87896 12.2733 3.22271 11.6866L3.21255 11.7054C3.91021 10.5124 5.18521 9.72412 6.64458 9.72412ZM12.5 6.89131C14.0875 6.89209 15.5985 7.21631 16.9719 7.80146L16.8969 7.77334C14.418 8.6249 12.6415 10.8749 12.5 13.5585L12.4993 13.5741C12.3586 10.8749 10.5813 8.62412 8.14771 7.78662L8.10239 7.77334C9.40083 7.21709 10.9125 6.89365 12.4993 6.89287L12.5 6.89131ZM12.5063 4.97803C12.5047 4.97803 12.5024 4.97803 12.5008 4.97803C9.71567 4.97803 7.1313 5.83662 4.9977 7.30459L5.04224 7.27568H0.784424L2.70083 9.36006C1.52271 10.4351 0.786768 11.9765 0.786768 13.6897C0.786768 16.9226 3.40786 19.5437 6.64067 19.5437C8.18052 19.5437 9.5813 18.9491 10.6266 17.9772L10.6227 17.9804L12.4993 20.0226L14.3758 17.9819C15.4172 18.9499 16.818 19.5444 18.3579 19.5444C21.5915 19.5444 24.2125 16.9233 24.2125 13.6897C24.2125 11.9765 23.4766 10.4343 22.3032 9.36396L22.2985 9.36006L24.2149 7.27568H19.968C17.8797 5.8374 15.2961 4.97881 12.511 4.97881C12.5086 4.97881 12.5071 4.97881 12.5047 4.97881L12.5063 4.97803Z" fill="#AEAEAE"/>
</svg>
