<svg width="42" height="42" viewBox="0 0 42 42" fill="none" xmlns="http://www.w3.org/2000/svg">
<g clip-path="url(#clip0_182_338)">
<path d="M27.5374 23.412L26.7563 23.9759C26.7563 23.9759 24.8997 25.3167 21.2115 20.2699C17.5233 15.2233 19.3799 13.8826 19.3799 13.8826L19.8717 13.5274C21.0834 12.6525 21.4469 10.9971 20.7268 9.63242L19.2541 6.84097C18.3629 5.15197 16.2103 4.60645 14.7106 5.68942L12.0188 7.63319C11.2752 8.17018 10.7135 8.93001 10.6202 9.85686C10.3814 12.228 10.6436 17.4527 15.6419 24.292C20.9424 31.5447 26.8064 32.7286 29.2562 32.886C30.031 32.9359 30.7567 32.6522 31.3761 32.2048L33.8123 30.4458C35.4567 29.2582 35.4398 26.7731 33.7787 25.4971L31.192 23.5099C30.1013 22.6721 28.6171 22.6322 27.5374 23.412Z" fill="url(#paint0_linear_182_338)"/>
</g>
<defs>
<linearGradient id="paint0_linear_182_338" x1="24.8288" y1="6.41952" x2="20.8385" y2="31.6053" gradientUnits="userSpaceOnUse">
<stop stop-color="#FFD60A"/>
<stop offset="1" stop-color="#FFC300"/>
</linearGradient>
<clipPath id="clip0_182_338">
<rect width="36" height="36" fill="white" transform="translate(6.03845 0.405029) rotate(9.00289)"/>
</clipPath>
</defs>
</svg>
