<?xml version="1.0" encoding="UTF-8"?>
<svg id="Calque_1" data-name="Calque 1" xmlns="http://www.w3.org/2000/svg" viewBox="0 0 472 500">
  <defs>
    <style>
      .cls-1 {
        fill: #fff;
        stroke-width: 0px;
      }
    </style>
  </defs>
  <g>
    <path class="cls-1" d="M466.44,235.81h-8.36c-7.68,0-13.91,6.23-13.91,13.9h0c0,4.67-.19,9.3-.48,13.9-.58,9.44-1.76,18.72-3.49,27.81-1.8,9.5-4.21,18.78-7.18,27.81-23.52,71.51-82.28,127.03-155.79,145.94-9.06,2.33-18.36,4.04-27.82,5.22-7.3.91-14.69,1.51-22.19,1.71-3.1.08-5.64-2.46-5.64-5.56v-22.17s0-27.81,0-27.81V5.55C221.59,2.49,219.1,0,216.03,0h0c-12.3,0-22.26,9.97-22.26,22.27v449.91c0,15.3,12.52,27.82,27.82,27.83h0c9.41,0,18.69-.54,27.82-1.55,9.44-1.04,18.73-2.6,27.82-4.67,88.93-20.17,159.87-87.64,184.97-174.55,2.62-9.07,4.73-18.35,6.32-27.81,1.53-9.11,2.57-18.39,3.09-27.81.25-4.6.39-9.24.39-13.9v-8.35c0-3.07-2.49-5.55-5.56-5.55Z"/>
    <path class="cls-1" d="M415.8,235.81c-.67-9.47-2-18.76-3.98-27.81-15.15-69.31-67.21-124.8-134.59-144.84l-13.53-4.02c-7.13-2.12-14.29,3.22-14.29,10.66v366.02c0,3.49,3.17,6.1,6.61,5.48,7.22-1.29,14.29-2.98,21.21-5.04,58.09-17.29,104.79-60.91,126.28-117.04,3.43-8.97,6.22-18.26,8.31-27.81,1.98-9.05,3.31-18.34,3.98-27.81.33-4.6.55-9.22.55-13.9s-.22-9.31-.55-13.9ZM381.74,263.62c3.37,0,5.93,2.96,5.53,6.3-.87,7.33-2.2,14.51-4,21.51-2.48,9.64-5.85,18.92-9.93,27.81-17.6,38.31-49.26,68.8-88.4,84.86-3.67,1.51-7.71-1.21-7.71-5.17V100.5c0-3.95,4.02-6.68,7.68-5.18,48.23,19.78,85.16,61.46,98.35,112.68,1.8,7,3.13,14.18,4,21.51.4,3.34-2.17,6.3-5.53,6.3h-72.5c-3.08,0-5.57,2.49-5.57,5.57v16.67c0,3.08,2.49,5.57,5.57,5.57h72.5Z"/>
  </g>
  <path class="cls-1" d="M32.35,205.62c2.09-9.55,4.88-18.84,8.31-27.81,19.12-49.94,58.21-87.79,107.52-107.7,11.42-4.61,18.76-15.86,18.76-28.17h0c0-3.72-3.59-6.37-7.16-5.33C89.63,57.03,33.9,108.64,11.15,177.81c-2.97,9.03-5.38,18.31-7.18,27.81-1.73,9.09-2.9,18.37-3.49,27.81-.28,4.6-.48,9.23-.48,13.9,0,.4.02.79.02,1.19,0,.4-.02.79-.02,1.19,0,4.67.19,9.3.48,13.9.58,9.44,1.76,18.72,3.49,27.81,1.8,9.5,4.21,18.78,7.18,27.81,22.75,69.17,78.47,123.38,148.62,143.97,3.58,1.05,7.18-1.6,7.18-5.33h0c0-12.43-7.52-23.59-19-28.36-49.2-20.43-88.19-60.42-107.28-110.28-3.43-8.97-6.22-18.26-8.31-27.81-1.98-9.05-3.31-18.34-3.98-27.81-.33-4.6-.55-9.22-.55-13.9,0-.4.02-.79.03-1.19,0-.4-.03-.79-.03-1.19,0-4.68.22-9.31.55-13.9.67-9.47,2-18.76,3.98-27.81Z"/>
</svg>