<svg width="60" height="64" viewBox="0 0 60 64" fill="none" xmlns="http://www.w3.org/2000/svg">
<g clip-path="url(#clip0_182_345)">
<path d="M59.2932 29.9758H58.2305C57.2542 29.9758 56.4623 30.7678 56.4623 31.7428C56.4623 32.3364 56.4381 32.925 56.4013 33.5097C56.3275 34.7097 56.1775 35.8894 55.9576 37.0449C55.7288 38.2525 55.4225 39.4322 55.0449 40.5801C52.0551 49.6703 44.5856 56.7279 35.2411 59.1317C34.0894 59.4279 32.9072 59.6453 31.7047 59.7953C30.7767 59.911 29.8373 59.9872 28.8839 60.0127C28.4898 60.0228 28.1669 59.7 28.1669 59.3059V56.4877V52.9525V0.705508C28.1682 0.316525 27.8517 0 27.4614 0C25.8979 0 24.6318 1.26737 24.6318 2.83093V60.0228C24.6318 61.9678 26.2233 63.5593 28.1682 63.5606C29.3644 63.5606 30.5441 63.4919 31.7047 63.3635C32.9047 63.2313 34.0856 63.033 35.2411 62.7699C46.5458 60.2059 55.5636 51.6292 58.7542 40.5813C59.0873 39.4284 59.3555 38.2487 59.5576 37.0462C59.7521 35.8881 59.8843 34.7085 59.9504 33.511C59.9822 32.9262 60 32.3364 60 31.744V30.6826C60 30.2924 59.6835 29.9771 59.2932 29.9771V29.9758Z" fill="white"/>
<path d="M52.8559 29.9758C52.7708 28.772 52.6017 27.5911 52.35 26.4407C50.4242 17.6301 43.8064 10.5763 35.2411 8.02881L33.5212 7.51779C32.6148 7.2483 31.7047 7.92712 31.7047 8.87288V55.4008C31.7047 55.8445 32.1076 56.1762 32.5449 56.0974C33.4627 55.9334 34.3614 55.7186 35.2411 55.4567C42.6254 53.2589 48.5619 47.714 51.2936 40.5788C51.7297 39.4385 52.0843 38.2576 52.35 37.0436C52.6017 35.8932 52.7708 34.7123 52.8559 33.5085C52.8979 32.9237 52.9258 32.3364 52.9258 31.7415C52.9258 31.1466 52.8979 30.558 52.8559 29.9746V29.9758ZM48.5263 33.511C48.9547 33.511 49.2801 33.8873 49.2292 34.3118C49.1186 35.2436 48.9496 36.1563 48.7208 37.0462C48.4055 38.2716 47.9771 39.4512 47.4585 40.5813C45.2212 45.4512 41.1966 49.3271 36.2212 51.3686C35.7547 51.5606 35.2411 51.2148 35.2411 50.7114V12.7754C35.2411 12.2733 35.7521 11.9263 36.2174 12.1169C42.3483 14.6313 47.0428 19.9296 48.7195 26.4407C48.9483 27.3305 49.1174 28.2432 49.228 29.175C49.2788 29.5996 48.9521 29.9758 48.525 29.9758H39.3089C38.9174 29.9758 38.6009 30.2924 38.6009 30.6839V32.8029C38.6009 33.1945 38.9174 33.511 39.3089 33.511H48.525H48.5263Z" fill="white"/>
<path d="M4.11229 26.1381C4.37796 24.9241 4.73263 23.7432 5.16864 22.603C7.59915 16.2547 12.5682 11.4432 18.8364 8.91229C20.2881 8.32627 21.2212 6.89619 21.2212 5.33136C21.2212 4.85847 20.7648 4.52161 20.311 4.65381C11.3936 7.24958 4.30932 13.8102 1.41737 22.603C1.03983 23.7508 0.733474 24.9305 0.504661 26.1381C0.284746 27.2936 0.136017 28.4733 0.0610169 29.6733C0.0254237 30.258 0 30.8466 0 31.4402C0 31.4911 0.00254237 31.5407 0.00254237 31.5915C0.00254237 31.6424 0 31.6919 0 31.7428C0 32.3364 0.0241525 32.925 0.0610169 33.5097C0.134746 34.7097 0.284746 35.8894 0.504661 37.0449C0.733474 38.2525 1.03983 39.4322 1.41737 40.5801C4.30932 49.3729 11.3924 56.2639 20.3097 58.8813C20.7648 59.0148 21.2225 58.6779 21.2225 58.2038C21.2225 56.6237 20.2665 55.2051 18.8072 54.5987C12.553 52.0017 7.59661 46.9182 5.16991 40.5801C4.7339 39.4398 4.37924 38.2589 4.11356 37.0449C3.86186 35.8945 3.6928 34.7135 3.60763 33.5097C3.56568 32.925 3.53771 32.3377 3.53771 31.7428C3.53771 31.6919 3.54025 31.6424 3.54152 31.5915C3.54152 31.5407 3.53771 31.4911 3.53771 31.4402C3.53771 30.8453 3.56568 30.2568 3.60763 29.6733C3.6928 28.4695 3.86186 27.2885 4.11356 26.1381H4.11229Z" fill="white"/>
</g>
<defs>
<clipPath id="clip0_182_345">
<rect width="60" height="63.5593" fill="white"/>
</clipPath>
</defs>
</svg>
